<svg width="30" height="30" viewBox="0 0 30 30" fill="none" xmlns="http://www.w3.org/2000/svg">
<mask id="mask0_51_1291" style="mask-type:alpha" maskUnits="userSpaceOnUse" x="0" y="0" width="30" height="30">
<rect width="30" height="30" fill="#636363"/>
</mask>
<g mask="url(#mask0_51_1291)">
<path d="M2.5 23.7501V21.2501C3.29167 21.2501 3.875 21.0417 4.25 20.6251C4.625 20.2084 5.42708 20.0001 6.65625 20.0001C7.86458 20.0001 8.67708 20.2084 9.09375 20.6251C9.51042 21.0417 10.0833 21.2501 10.8125 21.2501C11.6042 21.2501 12.1927 21.0417 12.5781 20.6251C12.9635 20.2084 13.7708 20.0001 15 20.0001C16.2292 20.0001 17.0365 20.2084 17.4219 20.6251C17.8073 21.0417 18.3958 21.2501 19.1875 21.2501C19.9167 21.2501 20.4896 21.0417 20.9062 20.6251C21.3229 20.2084 22.1354 20.0001 23.3438 20.0001C24.5729 20.0001 25.375 20.2084 25.75 20.6251C26.125 21.0417 26.7083 21.2501 27.5 21.2501V23.7501C26.3125 23.7501 25.5 23.5417 25.0625 23.1251C24.625 22.7084 24.0417 22.5001 23.3125 22.5001C22.5625 22.5001 21.9792 22.7084 21.5625 23.1251C21.1458 23.5417 20.3438 23.7501 19.1562 23.7501C17.9271 23.7501 17.125 23.5417 16.75 23.1251C16.375 22.7084 15.7917 22.5001 15 22.5001C14.2083 22.5001 13.625 22.7084 13.25 23.1251C12.875 23.5417 12.0729 23.7501 10.8438 23.7501C9.65625 23.7501 8.85417 23.5417 8.4375 23.1251C8.02083 22.7084 7.4375 22.5001 6.6875 22.5001C5.95833 22.5001 5.375 22.7084 4.9375 23.1251C4.5 23.5417 3.6875 23.7501 2.5 23.7501ZM7.1875 18.7501C6.6875 18.7501 6.20833 18.6563 5.75 18.4688C5.29167 18.2813 4.88542 18.0105 4.53125 17.6563L2.8125 15.9376L4.5625 14.1876L6.28125 15.8751C6.40625 16.0001 6.54688 16.0938 6.70312 16.1563C6.85938 16.2188 7.02083 16.2501 7.1875 16.2501H8.75V12.0313L7.09375 13.2501L5.625 11.2501L15 4.37508L24.375 11.2501L22.9062 13.2813L21.25 12.0626V16.2501H22.8125C22.9792 16.2501 23.1406 16.2188 23.2969 16.1563C23.4531 16.0938 23.5938 16.0001 23.7188 15.8751L25.4375 14.1876L27.1875 15.9376L25.4688 17.6563C25.1146 18.0105 24.7083 18.2813 24.25 18.4688C23.7917 18.6563 23.3125 18.7501 22.8125 18.7501H7.1875ZM11.25 16.2501H13.75V13.7501H16.25V16.2501H18.75V10.2188L15 7.46883L11.25 10.2188V16.2501Z" fill="#636363"/>
</g>
</svg>
