<svg width="30" height="30" viewBox="0 0 30 30" fill="none" xmlns="http://www.w3.org/2000/svg">
<mask id="mask0_51_1359" style="mask-type:alpha" maskUnits="userSpaceOnUse" x="0" y="0" width="30" height="30">
<rect width="30" height="30" fill="#636363"/>
</mask>
<g mask="url(#mask0_51_1359)">
<path d="M2.5 26.25V11.25L12.5 3.75L19.2188 8.8125C18.6979 8.875 18.2083 8.99479 17.75 9.17188C17.2917 9.34896 16.8542 9.58333 16.4375 9.875L12.5 6.875L5 12.5V23.75H10V26.25H2.5ZM12.5 26.25V23.875C12.5 23.4375 12.6094 23.026 12.8281 22.6406C13.0469 22.2552 13.3438 21.9479 13.7188 21.7188C14.6771 21.1562 15.6823 20.7292 16.7344 20.4375C17.7865 20.1458 18.875 20 20 20C21.125 20 22.2135 20.1458 23.2656 20.4375C24.3177 20.7292 25.3229 21.1562 26.2812 21.7188C26.6562 21.9479 26.9531 22.2552 27.1719 22.6406C27.3906 23.026 27.5 23.4375 27.5 23.875V26.25H12.5ZM15.1875 23.75H24.8125C24.0833 23.3333 23.3125 23.0208 22.5 22.8125C21.6875 22.6042 20.8542 22.5 20 22.5C19.1458 22.5 18.3125 22.6042 17.5 22.8125C16.6875 23.0208 15.9167 23.3333 15.1875 23.75ZM20 18.75C18.9583 18.75 18.0729 18.3854 17.3438 17.6562C16.6146 16.9271 16.25 16.0417 16.25 15C16.25 13.9583 16.6146 13.0729 17.3438 12.3438C18.0729 11.6146 18.9583 11.25 20 11.25C21.0417 11.25 21.9271 11.6146 22.6562 12.3438C23.3854 13.0729 23.75 13.9583 23.75 15C23.75 16.0417 23.3854 16.9271 22.6562 17.6562C21.9271 18.3854 21.0417 18.75 20 18.75ZM20 16.25C20.3542 16.25 20.651 16.1302 20.8906 15.8906C21.1302 15.651 21.25 15.3542 21.25 15C21.25 14.6458 21.1302 14.349 20.8906 14.1094C20.651 13.8698 20.3542 13.75 20 13.75C19.6458 13.75 19.349 13.8698 19.1094 14.1094C18.8698 14.349 18.75 14.6458 18.75 15C18.75 15.3542 18.8698 15.651 19.1094 15.8906C19.349 16.1302 19.6458 16.25 20 16.25Z" fill="#636363"/>
</g>
</svg>
