<svg width="32" height="32" viewBox="0 0 32 32" fill="none" xmlns="http://www.w3.org/2000/svg">
<mask id="mask0_38_49" style="mask-type:alpha" maskUnits="userSpaceOnUse" x="0" y="0" width="32" height="32">
<rect width="32" height="32" fill="#D9D9D9"/>
</mask>
<g mask="url(#mask0_38_49)">
<path d="M7.80002 22.8001C8.93335 21.9334 10.2 21.2501 11.6 20.7501C13 20.2501 14.4667 20.0001 16 20.0001C17.5334 20.0001 19 20.2501 20.4 20.7501C21.8 21.2501 23.0667 21.9334 24.2 22.8001C24.9778 21.889 25.5834 20.8556 26.0167 19.7001C26.45 18.5445 26.6667 17.3112 26.6667 16.0001C26.6667 13.0445 25.6278 10.5279 23.55 8.45008C21.4722 6.3723 18.9556 5.33341 16 5.33341C13.0445 5.33341 10.5278 6.3723 8.45002 8.45008C6.37224 10.5279 5.33335 13.0445 5.33335 16.0001C5.33335 17.3112 5.55002 18.5445 5.98335 19.7001C6.41669 20.8556 7.02224 21.889 7.80002 22.8001ZM16 17.3334C14.6889 17.3334 13.5834 16.8834 12.6834 15.9834C11.7834 15.0834 11.3334 13.9779 11.3334 12.6667C11.3334 11.3556 11.7834 10.2501 12.6834 9.35008C13.5834 8.45008 14.6889 8.00008 16 8.00008C17.3111 8.00008 18.4167 8.45008 19.3167 9.35008C20.2167 10.2501 20.6667 11.3556 20.6667 12.6667C20.6667 13.9779 20.2167 15.0834 19.3167 15.9834C18.4167 16.8834 17.3111 17.3334 16 17.3334ZM16 29.3334C14.1556 29.3334 12.4222 28.9834 10.8 28.2834C9.1778 27.5834 7.76669 26.6334 6.56669 25.4334C5.36669 24.2334 4.41669 22.8223 3.71669 21.2001C3.01669 19.5779 2.66669 17.8445 2.66669 16.0001C2.66669 14.1556 3.01669 12.4223 3.71669 10.8001C4.41669 9.17786 5.36669 7.76675 6.56669 6.56675C7.76669 5.36675 9.1778 4.41675 10.8 3.71675C12.4222 3.01675 14.1556 2.66675 16 2.66675C17.8445 2.66675 19.5778 3.01675 21.2 3.71675C22.8222 4.41675 24.2334 5.36675 25.4334 6.56675C26.6334 7.76675 27.5834 9.17786 28.2834 10.8001C28.9834 12.4223 29.3334 14.1556 29.3334 16.0001C29.3334 17.8445 28.9834 19.5779 28.2834 21.2001C27.5834 22.8223 26.6334 24.2334 25.4334 25.4334C24.2334 26.6334 22.8222 27.5834 21.2 28.2834C19.5778 28.9834 17.8445 29.3334 16 29.3334Z" fill="white"/>
</g>
</svg>
